<?xml version="1.0" standalone="no"?>
<!DOCTYPE svg PUBLIC "-//W3C//DTD SVG 20010904//EN"
 "http://www.w3.org/TR/2001/REC-SVG-20010904/DTD/svg10.dtd">
<svg version="1.0" xmlns="http://www.w3.org/2000/svg"
 width="397.000000pt" height="399.000000pt" viewBox="0 0 397.000000 399.000000"
 preserveAspectRatio="xMidYMid meet">
<metadata>
Created by potrace 1.16, written by Peter Selinger 2001-2019
</metadata>
<g transform="translate(0.000000,399.000000) scale(0.100000,-0.100000)"
fill="#000000" stroke="none">
<path d="M1797 3774 c-242 -54 -398 -189 -475 -413 -12 -34 -16 -89 -16 -216
-1 -163 -2 -172 -24 -195 -13 -14 -26 -36 -29 -50 -4 -14 1 -105 9 -203 18
-199 28 -228 92 -263 33 -19 42 -32 69 -105 30 -82 31 -88 31 -269 l1 -184
-210 -94 c-115 -51 -325 -143 -465 -203 -140 -61 -272 -122 -293 -136 -109
-76 -204 -205 -248 -338 -22 -68 -23 -83 -27 -492 l-4 -423 61 0 61 0 0 165 0
165 305 0 306 0 -5 -165 -5 -165 1039 0 1040 0 0 168 0 167 300 -3 300 -3 0
-164 0 -165 60 0 60 0 0 398 c0 450 -4 486 -69 617 -22 44 -63 106 -91 137
-52 58 -157 134 -220 158 -50 19 -398 170 -647 280 l-213 94 0 176 c0 170 1
178 31 272 25 75 37 99 53 104 25 8 64 41 79 69 6 11 18 98 27 194 19 191 15
228 -26 266 -24 22 -24 23 -14 121 23 217 -33 394 -167 529 -70 70 -180 132
-288 161 -86 23 -302 28 -388 8z m348 -119 c144 -37 281 -138 327 -242 60
-137 71 -301 32 -489 -6 -30 -4 -32 31 -38 20 -4 38 -13 41 -20 5 -14 -24
-318 -32 -325 -2 -3 -23 0 -44 6 -39 10 -40 9 -46 -16 -24 -109 -47 -191 -66
-230 -30 -62 -227 -264 -287 -293 -61 -30 -196 -32 -256 -3 -22 10 -90 68
-151 129 -128 129 -154 174 -187 324 -18 82 -25 101 -37 96 -34 -15 -70 -16
-75 -3 -7 23 -32 303 -27 317 2 6 22 15 44 18 31 5 38 10 33 23 -30 76 -36
288 -11 394 42 178 157 293 350 348 80 23 278 25 361 4z m-479 -1655 c114
-112 146 -125 304 -125 116 0 129 2 180 27 30 15 92 62 138 104 l82 76 0 -129
c0 -113 -3 -134 -24 -178 -30 -65 -110 -138 -194 -178 -63 -30 -73 -32 -182
-32 -110 0 -118 2 -185 34 -74 36 -160 113 -191 172 -15 27 -19 62 -22 172 -2
75 0 137 4 137 4 0 45 -36 90 -80z"/>
</g>
</svg>
